<svg width="204px" height="142px" viewBox="0 0 204 142" version="1.1" xmlns="http://www.w3.org/2000/svg" xmlns:xlink="http://www.w3.org/1999/xlink">
    <defs>
        <path d="M101.94,0.22 C101.94,0.22 38.72,0.22 22.85,4.35 C14.1965738,6.86855769 7.45087697,13.6671619 5,22.34 C0.87,38.2 0.87,71.06 0.87,71.06 C0.87,71.06 0.87,104.05 5,119.66 C7.41940908,128.329644 14.1917121,135.105738 22.86,137.53 C38.86,141.78 101.95,141.78 101.95,141.78 C101.95,141.78 165.29,141.78 181.15,137.65 C189.836572,135.302265 196.605975,128.490911 198.9,119.79 C203.15,104.05 203.15,71.19 203.15,71.19 C203.15,71.19 203.27,38.2 198.9,22.34 C196.602162,13.6696025 189.830397,6.89783808 181.16,4.6 C165.29,0.22 101.95,0.22 101.95,0.22 L101.94,0.22 Z M134.42,71.06 L81.82,101.3 L81.82,40.7 L134.42,71.06 Z" id="path-1"></path>
    </defs>
    <g id="Page-1" stroke="none" stroke-width="1" fill="none" fill-rule="evenodd">
        <g id="youtube">
            <mask id="mask-2" fill="white">
                <use xlink:href="#path-1"></use>
            </mask>
            <use id="Shape" fill="#FF0000" fill-rule="nonzero" xlink:href="#path-1"></use>
        </g>
    </g>
</svg>